<mxfile host="app.diagrams.net" agent="Mozilla/5.0 (Windows NT 10.0; Win64; x64) AppleWebKit/537.36 (KHTML, like Gecko) Chrome/130.0.0.0 Safari/537.36" version="24.8.3">
  <diagram name="Страница — 1" id="YorfoxozhG5tYaJjUHev">
    <mxGraphModel dx="2261" dy="738" grid="1" gridSize="10" guides="1" tooltips="1" connect="1" arrows="1" fold="1" page="1" pageScale="1" pageWidth="827" pageHeight="1169" math="0" shadow="0">
      <root>
        <mxCell id="0" />
        <mxCell id="1" parent="0" />
        <mxCell id="tEmNKkBfoFohcW3U9635-2" value="Class&lt;br&gt;Animals" style="swimlane;fontStyle=1;align=center;verticalAlign=middle;childLayout=stackLayout;horizontal=1;startSize=29;horizontalStack=0;resizeParent=1;resizeParentMax=0;resizeLast=0;collapsible=0;marginBottom=0;html=1;whiteSpace=wrap;" parent="1" vertex="1">
          <mxGeometry x="344" y="180" width="140" height="54" as="geometry" />
        </mxCell>
        <mxCell id="tEmNKkBfoFohcW3U9635-7" style="edgeStyle=orthogonalEdgeStyle;rounded=0;orthogonalLoop=1;jettySize=auto;html=1;exitX=0.5;exitY=0;exitDx=0;exitDy=0;entryX=0.25;entryY=1;entryDx=0;entryDy=0;" parent="1" source="tEmNKkBfoFohcW3U9635-5" target="tEmNKkBfoFohcW3U9635-2" edge="1">
          <mxGeometry relative="1" as="geometry" />
        </mxCell>
        <mxCell id="tEmNKkBfoFohcW3U9635-28" value="Extends" style="edgeLabel;html=1;align=center;verticalAlign=middle;resizable=0;points=[];" parent="tEmNKkBfoFohcW3U9635-7" connectable="0" vertex="1">
          <mxGeometry x="0.051" y="4" relative="1" as="geometry">
            <mxPoint as="offset" />
          </mxGeometry>
        </mxCell>
        <mxCell id="tEmNKkBfoFohcW3U9635-5" value="Class&lt;br&gt;homeAnimals" style="swimlane;fontStyle=1;align=center;verticalAlign=middle;childLayout=stackLayout;horizontal=1;startSize=29;horizontalStack=0;resizeParent=1;resizeParentMax=0;resizeLast=0;collapsible=0;marginBottom=0;html=1;whiteSpace=wrap;" parent="1" vertex="1">
          <mxGeometry x="100" y="280" width="140" height="54" as="geometry" />
        </mxCell>
        <mxCell id="tEmNKkBfoFohcW3U9635-8" style="edgeStyle=orthogonalEdgeStyle;rounded=0;orthogonalLoop=1;jettySize=auto;html=1;exitX=0.5;exitY=0;exitDx=0;exitDy=0;entryX=0.75;entryY=1;entryDx=0;entryDy=0;" parent="1" source="tEmNKkBfoFohcW3U9635-6" target="tEmNKkBfoFohcW3U9635-2" edge="1">
          <mxGeometry relative="1" as="geometry" />
        </mxCell>
        <mxCell id="tEmNKkBfoFohcW3U9635-29" value="Extends" style="edgeLabel;html=1;align=center;verticalAlign=middle;resizable=0;points=[];" parent="tEmNKkBfoFohcW3U9635-8" connectable="0" vertex="1">
          <mxGeometry x="0.0562" y="-1" relative="1" as="geometry">
            <mxPoint as="offset" />
          </mxGeometry>
        </mxCell>
        <mxCell id="tEmNKkBfoFohcW3U9635-6" value="Class&lt;br&gt;rideAnimals" style="swimlane;fontStyle=1;align=center;verticalAlign=middle;childLayout=stackLayout;horizontal=1;startSize=29;horizontalStack=0;resizeParent=1;resizeParentMax=0;resizeLast=0;collapsible=0;marginBottom=0;html=1;whiteSpace=wrap;" parent="1" vertex="1">
          <mxGeometry x="600" y="280" width="140" height="54" as="geometry" />
        </mxCell>
        <mxCell id="tEmNKkBfoFohcW3U9635-12" style="edgeStyle=orthogonalEdgeStyle;rounded=0;orthogonalLoop=1;jettySize=auto;html=1;exitX=0.5;exitY=0;exitDx=0;exitDy=0;entryX=0.25;entryY=1;entryDx=0;entryDy=0;" parent="1" source="tEmNKkBfoFohcW3U9635-9" target="tEmNKkBfoFohcW3U9635-5" edge="1">
          <mxGeometry relative="1" as="geometry" />
        </mxCell>
        <mxCell id="tEmNKkBfoFohcW3U9635-22" value="Extends" style="edgeLabel;html=1;align=center;verticalAlign=middle;resizable=0;points=[];" parent="tEmNKkBfoFohcW3U9635-12" connectable="0" vertex="1">
          <mxGeometry x="0.0681" y="1" relative="1" as="geometry">
            <mxPoint as="offset" />
          </mxGeometry>
        </mxCell>
        <mxCell id="tEmNKkBfoFohcW3U9635-9" value="Class&lt;br&gt;Dog" style="swimlane;fontStyle=1;align=center;verticalAlign=middle;childLayout=stackLayout;horizontal=1;startSize=29;horizontalStack=0;resizeParent=1;resizeParentMax=0;resizeLast=0;collapsible=0;marginBottom=0;html=1;whiteSpace=wrap;" parent="1" vertex="1">
          <mxGeometry x="-60" y="400" width="140" height="54" as="geometry" />
        </mxCell>
        <mxCell id="tEmNKkBfoFohcW3U9635-13" style="edgeStyle=orthogonalEdgeStyle;rounded=0;orthogonalLoop=1;jettySize=auto;html=1;exitX=0.5;exitY=0;exitDx=0;exitDy=0;entryX=0.5;entryY=1;entryDx=0;entryDy=0;" parent="1" source="tEmNKkBfoFohcW3U9635-10" target="tEmNKkBfoFohcW3U9635-5" edge="1">
          <mxGeometry relative="1" as="geometry" />
        </mxCell>
        <mxCell id="tEmNKkBfoFohcW3U9635-23" value="Extends" style="edgeLabel;html=1;align=center;verticalAlign=middle;resizable=0;points=[];" parent="tEmNKkBfoFohcW3U9635-13" connectable="0" vertex="1">
          <mxGeometry x="-0.0303" y="3" relative="1" as="geometry">
            <mxPoint as="offset" />
          </mxGeometry>
        </mxCell>
        <mxCell id="tEmNKkBfoFohcW3U9635-10" value="Class&lt;br&gt;Cat" style="swimlane;fontStyle=1;align=center;verticalAlign=middle;childLayout=stackLayout;horizontal=1;startSize=29;horizontalStack=0;resizeParent=1;resizeParentMax=0;resizeLast=0;collapsible=0;marginBottom=0;html=1;whiteSpace=wrap;" parent="1" vertex="1">
          <mxGeometry x="100" y="400" width="140" height="54" as="geometry" />
        </mxCell>
        <mxCell id="tEmNKkBfoFohcW3U9635-15" style="edgeStyle=orthogonalEdgeStyle;rounded=0;orthogonalLoop=1;jettySize=auto;html=1;exitX=0.5;exitY=0;exitDx=0;exitDy=0;entryX=0.75;entryY=1;entryDx=0;entryDy=0;" parent="1" source="tEmNKkBfoFohcW3U9635-11" target="tEmNKkBfoFohcW3U9635-5" edge="1">
          <mxGeometry relative="1" as="geometry" />
        </mxCell>
        <mxCell id="tEmNKkBfoFohcW3U9635-24" value="Extends" style="edgeLabel;html=1;align=center;verticalAlign=middle;resizable=0;points=[];" parent="tEmNKkBfoFohcW3U9635-15" connectable="0" vertex="1">
          <mxGeometry x="0.0366" y="3" relative="1" as="geometry">
            <mxPoint as="offset" />
          </mxGeometry>
        </mxCell>
        <mxCell id="tEmNKkBfoFohcW3U9635-11" value="Class&lt;br&gt;Hamster" style="swimlane;fontStyle=1;align=center;verticalAlign=middle;childLayout=stackLayout;horizontal=1;startSize=29;horizontalStack=0;resizeParent=1;resizeParentMax=0;resizeLast=0;collapsible=0;marginBottom=0;html=1;whiteSpace=wrap;" parent="1" vertex="1">
          <mxGeometry x="260" y="400" width="140" height="54" as="geometry" />
        </mxCell>
        <mxCell id="tEmNKkBfoFohcW3U9635-19" style="edgeStyle=orthogonalEdgeStyle;rounded=0;orthogonalLoop=1;jettySize=auto;html=1;exitX=0.5;exitY=0;exitDx=0;exitDy=0;entryX=0.25;entryY=1;entryDx=0;entryDy=0;" parent="1" source="tEmNKkBfoFohcW3U9635-16" target="tEmNKkBfoFohcW3U9635-6" edge="1">
          <mxGeometry relative="1" as="geometry" />
        </mxCell>
        <mxCell id="tEmNKkBfoFohcW3U9635-25" value="Extends" style="edgeLabel;html=1;align=center;verticalAlign=middle;resizable=0;points=[];" parent="tEmNKkBfoFohcW3U9635-19" connectable="0" vertex="1">
          <mxGeometry x="-0.2251" y="1" relative="1" as="geometry">
            <mxPoint as="offset" />
          </mxGeometry>
        </mxCell>
        <mxCell id="tEmNKkBfoFohcW3U9635-16" value="Class&lt;br&gt;Horse" style="swimlane;fontStyle=1;align=center;verticalAlign=middle;childLayout=stackLayout;horizontal=1;startSize=29;horizontalStack=0;resizeParent=1;resizeParentMax=0;resizeLast=0;collapsible=0;marginBottom=0;html=1;whiteSpace=wrap;" parent="1" vertex="1">
          <mxGeometry x="440" y="400" width="140" height="54" as="geometry" />
        </mxCell>
        <mxCell id="tEmNKkBfoFohcW3U9635-21" style="edgeStyle=orthogonalEdgeStyle;rounded=0;orthogonalLoop=1;jettySize=auto;html=1;exitX=0.5;exitY=0;exitDx=0;exitDy=0;entryX=0.75;entryY=1;entryDx=0;entryDy=0;" parent="1" source="tEmNKkBfoFohcW3U9635-17" target="tEmNKkBfoFohcW3U9635-6" edge="1">
          <mxGeometry relative="1" as="geometry" />
        </mxCell>
        <mxCell id="tEmNKkBfoFohcW3U9635-26" value="Extends" style="edgeLabel;html=1;align=center;verticalAlign=middle;resizable=0;points=[];" parent="tEmNKkBfoFohcW3U9635-21" connectable="0" vertex="1">
          <mxGeometry x="0.1623" y="-2" relative="1" as="geometry">
            <mxPoint as="offset" />
          </mxGeometry>
        </mxCell>
        <mxCell id="tEmNKkBfoFohcW3U9635-17" value="Class&lt;br&gt;Donkey" style="swimlane;fontStyle=1;align=center;verticalAlign=middle;childLayout=stackLayout;horizontal=1;startSize=29;horizontalStack=0;resizeParent=1;resizeParentMax=0;resizeLast=0;collapsible=0;marginBottom=0;html=1;whiteSpace=wrap;" parent="1" vertex="1">
          <mxGeometry x="760" y="400" width="140" height="54" as="geometry" />
        </mxCell>
        <mxCell id="tEmNKkBfoFohcW3U9635-20" style="edgeStyle=orthogonalEdgeStyle;rounded=0;orthogonalLoop=1;jettySize=auto;html=1;exitX=0.5;exitY=0;exitDx=0;exitDy=0;entryX=0.5;entryY=1;entryDx=0;entryDy=0;" parent="1" source="tEmNKkBfoFohcW3U9635-18" target="tEmNKkBfoFohcW3U9635-6" edge="1">
          <mxGeometry relative="1" as="geometry" />
        </mxCell>
        <mxCell id="tEmNKkBfoFohcW3U9635-27" value="Extends" style="edgeLabel;html=1;align=center;verticalAlign=middle;resizable=0;points=[];" parent="tEmNKkBfoFohcW3U9635-20" connectable="0" vertex="1">
          <mxGeometry x="-0.2727" y="-1" relative="1" as="geometry">
            <mxPoint as="offset" />
          </mxGeometry>
        </mxCell>
        <mxCell id="tEmNKkBfoFohcW3U9635-18" value="Class&lt;br&gt;Camel" style="swimlane;fontStyle=1;align=center;verticalAlign=middle;childLayout=stackLayout;horizontal=1;startSize=29;horizontalStack=0;resizeParent=1;resizeParentMax=0;resizeLast=0;collapsible=0;marginBottom=0;html=1;whiteSpace=wrap;" parent="1" vertex="1">
          <mxGeometry x="600" y="400" width="140" height="54" as="geometry" />
        </mxCell>
      </root>
    </mxGraphModel>
  </diagram>
</mxfile>
